<?xml version="1.0" standalone="no"?>
<!DOCTYPE svg PUBLIC "-//W3C//DTD SVG 20010904//EN"
 "http://www.w3.org/TR/2001/REC-SVG-20010904/DTD/svg10.dtd">
<svg version="1.0" xmlns="http://www.w3.org/2000/svg"
 width="300.000000pt" height="300.000000pt" viewBox="0 0 300.000000 300.000000"
 preserveAspectRatio="xMidYMid meet">
<metadata>
Created by potrace 1.11, written by Peter Selinger 2001-2013
</metadata>
<g transform="translate(0.000000,300.000000) scale(0.100000,-0.100000)"
fill="#000000" stroke="none">
<path d="M465 2987 c-27 -5 -52 -13 -55 -16 -3 -4 -26 -15 -51 -24 -130 -49
-257 -176 -306 -306 -9 -25 -20 -48 -23 -51 -26 -20 -30 -160 -30 -1090 0
-926 4 -1068 29 -1090 4 -3 17 -32 31 -65 30 -76 98 -164 165 -214 57 -43 146
-91 170 -91 8 0 15 -4 15 -8 0 -5 29 -14 64 -20 85 -16 1970 -17 2048 -1 29 6
81 24 116 40 35 16 65 29 67 29 3 0 32 21 64 46 51 39 151 151 151 168 0 3 13
33 29 68 16 35 34 87 40 116 15 75 15 1971 0 2044 -6 29 -24 81 -40 116 -16
34 -29 64 -29 67 0 17 -102 132 -147 166 -54 40 -147 89 -170 89 -7 0 -13 4
-13 8 0 5 -29 14 -64 20 -83 16 -1986 15 -2061 -1z m1140 -471 c227 -39 428
-139 567 -283 114 -118 183 -248 234 -443 26 -97 28 -119 28 -300 0 -179 -2
-203 -26 -296 -88 -339 -276 -553 -588 -671 -168 -64 -390 -86 -810 -81 l-265
3 -3 1035 c-1 569 0 1041 3 1049 8 20 731 10 860 -13z"/>
<path d="M1160 1496 l0 -626 155 0 c252 0 392 43 515 157 123 114 181 260 182
458 2 315 -156 531 -449 611 -37 10 -120 18 -230 21 l-173 6 0 -627z"/>
</g>
</svg>
